<?xml version="1.0" encoding="iso-8859-1"?>
<!-- Generator: Adobe Illustrator 22.1.0, SVG Export Plug-In . SVG Version: 6.00 Build 0)  -->
<svg xmlns="http://www.w3.org/2000/svg" xmlns:xlink="http://www.w3.org/1999/xlink" version="1.1" id="Layer_1" x="0px" y="0px" viewBox="0 0 100 100" style="enable-background:new 0 0 100 100;" xml:space="preserve" width="100px" height="100px">
<g>
	<path style="fill:#C7EDE6;" d="M87.215,56.71C88.35,54.555,89,52.105,89,49.5c0-6.621-4.159-12.257-10.001-14.478   C78.999,35.015,79,35.008,79,35c0-11.598-9.402-21-21-21c-9.784,0-17.981,6.701-20.313,15.757C36.211,29.272,34.638,29,33,29   c-7.692,0-14.023,5.793-14.89,13.252C12.906,43.353,9,47.969,9,53.5C9,59.851,14.149,65,20.5,65c0.177,0,0.352-0.012,0.526-0.022   C21.022,65.153,21,65.324,21,65.5C21,76.822,30.178,86,41.5,86c6.437,0,12.175-2.972,15.934-7.614C59.612,80.611,62.64,82,66,82   c4.65,0,8.674-2.65,10.666-6.518C77.718,75.817,78.837,76,80,76c6.075,0,11-4.925,11-11C91,61.689,89.53,58.727,87.215,56.71z"/>
</g>
<g>
	<g>
		<path style="fill:#FFFFFF;" d="M47.405,24H37.5c-0.276,0-0.5-0.224-0.5-0.5s0.224-0.5,0.5-0.5h9.905c0.276,0,0.5,0.224,0.5,0.5    S47.682,24,47.405,24z"/>
	</g>
	<g>
		<path style="fill:#FFFFFF;" d="M50.5,24h-1c-0.276,0-0.5-0.224-0.5-0.5s0.224-0.5,0.5-0.5h1c0.276,0,0.5,0.224,0.5,0.5    S50.777,24,50.5,24z"/>
	</g>
	<g>
		<path style="fill:#FFFFFF;" d="M55.491,26H46.5c-0.276,0-0.5-0.224-0.5-0.5s0.224-0.5,0.5-0.5h8.991c0.276,0,0.5,0.224,0.5,0.5    S55.767,26,55.491,26z"/>
	</g>
	<g>
		<path style="fill:#FFFFFF;" d="M44.5,26h-1c-0.276,0-0.5-0.224-0.5-0.5s0.224-0.5,0.5-0.5h1c0.276,0,0.5,0.224,0.5,0.5    S44.777,26,44.5,26z"/>
	</g>
	<g>
		<path style="fill:#FFFFFF;" d="M41.5,26h-2c-0.276,0-0.5-0.224-0.5-0.5s0.224-0.5,0.5-0.5h2c0.276,0,0.5,0.224,0.5,0.5    S41.777,26,41.5,26z"/>
	</g>
	<g>
		<path style="fill:#FFFFFF;" d="M47.5,28h-2c-0.276,0-0.5-0.224-0.5-0.5s0.224-0.5,0.5-0.5h2c0.276,0,0.5,0.224,0.5,0.5    S47.776,28,47.5,28z"/>
	</g>
	<g>
		<path style="fill:#FFFFFF;" d="M50.5,19c-0.177,0-0.823,0-1,0c-0.276,0-0.5,0.224-0.5,0.5c0,0.276,0.224,0.5,0.5,0.5    c0.177,0,0.823,0,1,0c0.276,0,0.5-0.224,0.5-0.5C51,19.224,50.776,19,50.5,19z"/>
	</g>
	<g>
		<path style="fill:#FFFFFF;" d="M50.5,21c-0.177,0-4.823,0-5,0c-0.276,0-0.5,0.224-0.5,0.5c0,0.276,0.224,0.5,0.5,0.5    c0.177,0,4.823,0,5,0c0.276,0,0.5-0.224,0.5-0.5C51,21.224,50.776,21,50.5,21z"/>
	</g>
	<g>
		<path style="fill:#FFFFFF;" d="M55.5,23c-0.177,0-2.823,0-3,0c-0.276,0-0.5,0.224-0.5,0.5c0,0.276,0.224,0.5,0.5,0.5    c0.177,0,2.823,0,3,0c0.276,0,0.5-0.224,0.5-0.5C56,23.224,55.776,23,55.5,23z"/>
	</g>
</g>
<g>
	<g>
		<path style="fill:#FFFFFF;" d="M87.5,66h-10c-0.276,0-0.5-0.224-0.5-0.5s0.224-0.5,0.5-0.5h10c0.276,0,0.5,0.224,0.5,0.5    S87.776,66,87.5,66z"/>
	</g>
	<g>
		<path style="fill:#FFFFFF;" d="M91.5,66h-2c-0.276,0-0.5-0.224-0.5-0.5s0.224-0.5,0.5-0.5h2c0.276,0,0.5,0.224,0.5,0.5    S91.776,66,91.5,66z"/>
	</g>
	<g>
		<path style="fill:#FFFFFF;" d="M96.5,68h-10c-0.276,0-0.5-0.224-0.5-0.5s0.224-0.5,0.5-0.5h10c0.276,0,0.5,0.224,0.5,0.5    S96.777,68,96.5,68z"/>
	</g>
	<g>
		<path style="fill:#FFFFFF;" d="M84.5,68h-1c-0.276,0-0.5-0.224-0.5-0.5s0.224-0.5,0.5-0.5h1c0.276,0,0.5,0.224,0.5,0.5    S84.776,68,84.5,68z"/>
	</g>
	<g>
		<path style="fill:#FFFFFF;" d="M81.375,68H79.5c-0.276,0-0.5-0.224-0.5-0.5s0.224-0.5,0.5-0.5h1.875c0.276,0,0.5,0.224,0.5,0.5    S81.651,68,81.375,68z"/>
	</g>
	<g>
		<path style="fill:#FFFFFF;" d="M90.5,64h-5c-0.276,0-0.5-0.224-0.5-0.5s0.224-0.5,0.5-0.5h5c0.276,0,0.5,0.224,0.5,0.5    S90.777,64,90.5,64z"/>
	</g>
	<g>
		<path style="fill:#FFFFFF;" d="M87.5,70h-2c-0.276,0-0.5-0.224-0.5-0.5s0.224-0.5,0.5-0.5h2c0.276,0,0.5,0.224,0.5,0.5    S87.776,70,87.5,70z"/>
	</g>
</g>
<g>
	<g>
		<path style="fill:#FDFCEF;" d="M67.125,45.5c0,0-3.64,0-6.125,0s-4.5-2.015-4.5-4.5c0-2.333,1.782-4.229,4.055-4.455    C60.533,36.364,60.5,36.187,60.5,36c0-2.485,2.015-4.5,4.5-4.5c1.438,0,2.703,0.686,3.527,1.736    C68.667,30.6,70.829,28.5,73.5,28.5c2.761,0,5,2.239,5,5c0,0.446-0.077,0.87-0.187,1.282c0.642-0.777,1.6-1.282,2.687-1.282    c1.781,0,3.234,1.335,3.455,3.055C84.636,36.533,84.813,36.5,85,36.5c2.485,0,4.5,2.015,4.5,4.5s-2.015,4.5-4.5,4.5s-9.5,0-9.5,0    h-5.375V46h-3V45.5z"/>
	</g>
	<g>
		<path style="fill:#472B29;" d="M73.5,28c3.033,0,5.5,2.467,5.5,5.5c0,0.016,0,0.031,0,0.047C79.602,33.192,80.29,33,81,33    c1.831,0,3.411,1.261,3.858,3.005C84.905,36.002,84.952,36,85,36c2.757,0,5,2.243,5,5s-2.243,5-5,5H70.125    c-0.276,0-0.5-0.224-0.5-0.5s0.224-0.5,0.5-0.5H85c2.206,0,4-1.794,4-4s-1.794-4-4-4c-0.117,0-0.23,0.017-0.343,0.032    l-0.141,0.019c-0.021,0.003-0.041,0.004-0.062,0.004c-0.246,0-0.462-0.185-0.495-0.437C83.768,35.125,82.496,34,81,34    c-0.885,0-1.723,0.401-2.301,1.1c-0.098,0.118-0.241,0.182-0.386,0.182c-0.078,0-0.156-0.018-0.228-0.056    c-0.209-0.107-0.314-0.346-0.254-0.573C77.946,34.218,78,33.852,78,33.5c0-2.481-2.019-4.5-4.5-4.5    c-2.381,0-4.347,1.872-4.474,4.263c-0.011,0.208-0.15,0.387-0.349,0.45c-0.05,0.016-0.101,0.024-0.152,0.024    c-0.15,0-0.296-0.069-0.392-0.192C67.362,32.563,66.221,32,65,32c-2.206,0-4,1.794-4,4c0,0.117,0.017,0.23,0.032,0.343    l0.019,0.141c0.016,0.134-0.022,0.268-0.106,0.373c-0.084,0.105-0.207,0.172-0.34,0.185C58.549,37.247,57,38.949,57,41    c0,2.206,1.794,4,4,4h6.125c0.276,0,0.5,0.224,0.5,0.5s-0.224,0.5-0.5,0.5H61c-2.757,0-5-2.243-5-5    c0-2.397,1.689-4.413,4.003-4.877C60.001,36.082,60,36.041,60,36c0-2.757,2.243-5,5-5c1.176,0,2.293,0.416,3.183,1.164    C68.781,29.76,70.945,28,73.5,28L73.5,28z"/>
	</g>
	<g>
		<path style="fill:#472B29;" d="M75,35c1.403,0,2.609,0.999,2.913,2.341C78.28,37.119,78.699,37,79.125,37    c1.202,0,2.198,0.897,2.353,2.068C81.681,39.022,81.874,39,82.063,39c1.529,0,2.811,1.2,2.918,2.732    C84.99,41.87,84.886,41.99,84.749,42c-0.006,0-0.012,0-0.018,0c-0.13,0-0.24-0.101-0.249-0.232    c-0.089-1.271-1.151-2.268-2.419-2.268c-0.229,0-0.47,0.042-0.738,0.127c-0.022,0.007-0.045,0.01-0.067,0.01    c-0.055,0-0.11-0.02-0.156-0.054C81.038,39.537,81,39.455,81,39.375c0-1.034-0.841-1.875-1.875-1.875    c-0.447,0-0.885,0.168-1.231,0.473c-0.047,0.041-0.106,0.063-0.165,0.063c-0.032,0-0.063-0.006-0.093-0.019    c-0.088-0.035-0.148-0.117-0.155-0.212C77.377,36.512,76.288,35.5,75,35.5c-0.208,0-0.425,0.034-0.682,0.107    c-0.023,0.007-0.047,0.01-0.07,0.01c-0.109,0-0.207-0.073-0.239-0.182c-0.038-0.133,0.039-0.271,0.172-0.309    C74.483,35.04,74.744,35,75,35L75,35z"/>
	</g>
	<g>
		<path style="fill:#472B29;" d="M61.117,36.5c1.326,0,2.508,0.897,2.874,2.182c0.038,0.133-0.039,0.271-0.172,0.309    C63.795,38.997,63.772,39,63.75,39c-0.109,0-0.209-0.072-0.24-0.182C63.205,37.748,62.221,37,61.117,37    c-0.117,0-0.23,0.014-0.342,0.029c-0.012,0.002-0.023,0.003-0.035,0.003c-0.121,0-0.229-0.092-0.246-0.217    c-0.019-0.137,0.077-0.263,0.214-0.281C60.842,36.516,60.978,36.5,61.117,36.5L61.117,36.5z"/>
	</g>
</g>
<g>
	<g>
		<g>
			<path style="fill:#F2F0E7;" d="M31.448,67.223c-2.067,0-3.748-1.682-3.748-3.748V40.525c0-2.066,1.681-3.748,3.748-3.748h37.104     c2.066,0,3.748,1.682,3.748,3.748v22.949c0,2.066-1.682,3.748-3.748,3.748H31.448z"/>
		</g>
		<g>
			<path style="fill:#472B29;" d="M68.552,37.477c1.681,0,3.048,1.367,3.048,3.048v22.95c0,1.681-1.367,3.048-3.048,3.048H31.448     c-1.681,0-3.048-1.367-3.048-3.048v-22.95c0-1.681,1.367-3.048,3.048-3.048H68.552 M68.552,36.077H31.448     c-2.446,0-4.448,2.002-4.448,4.448v22.95c0,2.447,2.002,4.448,4.448,4.448h37.104c2.446,0,4.448-2.002,4.448-4.448v-22.95     C73,38.078,70.998,36.077,68.552,36.077L68.552,36.077z"/>
		</g>
	</g>
	<g>
		<polygon style="fill:#CECCBE;" points="50.537,55.757 32.903,66.643 32.827,45.023   "/>
	</g>
	<g>
		<g>
			<path style="fill:#EA5167;" d="M68.477,67.038c1.982,0,3.603-1.639,3.603-3.643V40.921c0-1.661-1.121-3.056-2.631-3.49     L49.971,49.674l-19.46-12.23c-1.49,0.447-2.591,1.831-2.591,3.477v22.475c0,2.004,1.622,3.643,3.603,3.643h1.567V46.034     l16.88,9.863l16.88-9.863L67,67L68.477,67.038z"/>
		</g>
	</g>
	<g>
		<g>
			<path style="fill:#472B29;" d="M49.989,50.174c-0.092,0-0.185-0.025-0.266-0.077l-9.309-5.846     c-0.234-0.147-0.304-0.456-0.157-0.689c0.147-0.232,0.455-0.303,0.689-0.157l9.042,5.679l3.966-2.491     c0.235-0.147,0.543-0.076,0.689,0.157c0.147,0.234,0.077,0.542-0.157,0.689l-4.232,2.658     C50.173,50.148,50.081,50.174,49.989,50.174z"/>
		</g>
		<g>
			<path style="fill:#472B29;" d="M56.846,45.868c-0.167,0-0.329-0.083-0.424-0.234c-0.147-0.234-0.077-0.542,0.157-0.689     l3.633-2.282c0.234-0.147,0.542-0.076,0.689,0.157c0.147,0.234,0.077,0.542-0.157,0.689l-3.633,2.282     C57.029,45.843,56.937,45.868,56.846,45.868z"/>
		</g>
		<g>
			<path style="fill:#472B29;" d="M66.5,68c-0.112,0-0.222-0.038-0.312-0.109C66.069,67.796,66,67.652,66,67.5v-5     c0-0.276,0.224-0.5,0.5-0.5s0.5,0.224,0.5,0.5v4.372l1.397-0.321c0.037-0.008,0.074-0.013,0.112-0.013     c1.712,0,3.106-1.41,3.106-3.143V40.921c0-1.315-0.838-2.496-2.064-2.942l-5.968,3.748c-0.236,0.146-0.543,0.075-0.689-0.157     c-0.147-0.234-0.077-0.542,0.157-0.689l6.166-3.872c0.121-0.076,0.269-0.096,0.404-0.057c1.763,0.506,2.994,2.139,2.994,3.97     v22.475c0,2.265-1.81,4.11-4.047,4.142l-1.956,0.449C66.575,67.996,66.537,68,66.5,68z"/>
		</g>
		<g>
			<path style="fill:#472B29;" d="M66.5,60c-0.276,0-0.5-0.224-0.5-0.5v-4c0-0.276,0.224-0.5,0.5-0.5s0.5,0.224,0.5,0.5v4     C67,59.776,66.776,60,66.5,60z"/>
		</g>
		<g>
			<path style="fill:#472B29;" d="M33.5,67.539h-1.974c-2.264,0-4.106-1.858-4.106-4.143V40.921c0-1.809,1.213-3.436,2.95-3.956     c0.137-0.042,0.288-0.021,0.409,0.056l2.376,1.492c0.234,0.146,0.305,0.456,0.158,0.689c-0.146,0.235-0.455,0.305-0.689,0.158     l-2.175-1.365c-1.205,0.457-2.028,1.63-2.028,2.927v22.475c0,1.733,1.394,3.143,3.106,3.143H33v-20.89     c0-0.182,0.099-0.349,0.257-0.437c0.158-0.088,0.352-0.083,0.507,0.012L49.989,55.31l16.248-10.086     c0.155-0.095,0.348-0.1,0.507-0.012C66.902,45.3,67,45.467,67,45.648v7.614c0,0.276-0.224,0.5-0.5,0.5s-0.5-0.224-0.5-0.5v-6.715     l-15.748,9.775c-0.162,0.101-0.367,0.1-0.528,0L34,46.548v20.491C34,67.315,33.776,67.539,33.5,67.539z"/>
		</g>
		<g>
			<path style="fill:#472B29;" d="M38.076,42.693c-0.091,0-0.183-0.025-0.266-0.077l-2.659-1.67     c-0.234-0.147-0.304-0.456-0.157-0.689c0.146-0.232,0.455-0.303,0.689-0.157l2.659,1.67c0.234,0.147,0.304,0.456,0.157,0.689     C38.405,42.61,38.242,42.693,38.076,42.693z"/>
		</g>
	</g>
</g>
<g>
	<g>
		<path style="fill:#FDFCEF;" d="M32.5,73.5c0,0,1.567,0,3.5,0s3.5-1.567,3.5-3.5c0-1.781-1.335-3.234-3.055-3.455    C36.473,66.366,36.5,66.187,36.5,66c0-1.933-1.567-3.5-3.5-3.5c-1.032,0-1.95,0.455-2.59,1.165    c-0.384-1.808-1.987-3.165-3.91-3.165c-2.209,0-4,1.791-4,4c0,0.191,0.03,0.374,0.056,0.558C22.128,64.714,21.592,64.5,21,64.5    c-1.228,0-2.245,0.887-2.455,2.055C18.366,66.527,18.187,66.5,18,66.5c-1.933,0-3.5,1.567-3.5,3.5s1.567,3.5,3.5,3.5s7.5,0,7.5,0    V74h7V73.5z"/>
	</g>
	<g>
		<path style="fill:#472B29;" d="M34.25,69C34.112,69,34,68.888,34,68.75c0-1.223,0.995-2.218,2.218-2.218    c0.034,0.009,0.737-0.001,1.244,0.136c0.133,0.036,0.212,0.173,0.176,0.306c-0.036,0.134-0.173,0.213-0.306,0.176    c-0.444-0.12-1.1-0.12-1.113-0.118c-0.948,0-1.719,0.771-1.719,1.718C34.5,68.888,34.388,69,34.25,69z"/>
	</g>
	<g>
		<circle style="fill:#472B29;" cx="27.5" cy="73.5" r="0.5"/>
	</g>
	<g>
		<path style="fill:#472B29;" d="M36,74h-3.5c-0.276,0-0.5-0.224-0.5-0.5s0.224-0.5,0.5-0.5H36c1.654,0,3-1.346,3-3    c0-1.496-1.125-2.768-2.618-2.959c-0.134-0.018-0.255-0.088-0.336-0.196s-0.115-0.244-0.094-0.377C35.975,66.314,36,66.16,36,66    c0-1.654-1.346-3-3-3c-0.85,0-1.638,0.355-2.219,1c-0.125,0.139-0.321,0.198-0.5,0.148c-0.182-0.049-0.321-0.195-0.36-0.379    C29.58,62.165,28.141,61,26.5,61c-1.93,0-3.5,1.57-3.5,3.5c0,0.143,0.021,0.28,0.041,0.418c0.029,0.203-0.063,0.438-0.242,0.54    c-0.179,0.102-0.396,0.118-0.556-0.01C21.878,65.155,21.449,65,21,65c-0.966,0-1.792,0.691-1.963,1.644    c-0.048,0.267-0.296,0.446-0.569,0.405C18.314,67.025,18.16,67,18,67c-1.654,0-3,1.346-3,3s1.346,3,3,3h7.5    c0.276,0,0.5,0.224,0.5,0.5S25.776,74,25.5,74H18c-2.206,0-4-1.794-4-4s1.794-4,4-4c0.059,0,0.116,0.002,0.174,0.006    C18.588,64.82,19.711,64,21,64c0.349,0,0.689,0.061,1.011,0.18C22.176,61.847,24.126,60,26.5,60c1.831,0,3.466,1.127,4.153,2.774    C31.333,62.276,32.155,62,33,62c2.206,0,4,1.794,4,4c0,0.048-0.001,0.095-0.004,0.142C38.739,66.59,40,68.169,40,70    C40,72.206,38.206,74,36,74z"/>
	</g>
	<g>
		<path style="fill:#472B29;" d="M30.5,73c-0.159,0-0.841,0-1,0c-0.276,0-0.5,0.224-0.5,0.5c0,0.276,0.224,0.5,0.5,0.5    c0.159,0,0.841,0,1,0c0.276,0,0.5-0.224,0.5-0.5C31,73.224,30.776,73,30.5,73z"/>
	</g>
</g>
</svg>
